<?xml version="1.0" encoding="UTF-8" standalone="no"?>
<svg
   viewBox="0 0 596.08301 537"
   version="1.1"
   id="svg4"
   sodipodi:docname="shopping-cart.svg"
   inkscape:version="1.2.1 (9c6d41e410, 2022-07-14)"
   width="596.08301"
   height="537"
   xmlns:inkscape="http://www.inkscape.org/namespaces/inkscape"
   xmlns:sodipodi="http://sodipodi.sourceforge.net/DTD/sodipodi-0.dtd"
   xmlns="http://www.w3.org/2000/svg"
   xmlns:svg="http://www.w3.org/2000/svg">
  <defs
     id="defs8" />
  <sodipodi:namedview
     id="namedview6"
     pagecolor="#505050"
     bordercolor="#eeeeee"
     borderopacity="1"
     inkscape:showpageshadow="0"
     inkscape:pageopacity="0"
     inkscape:pagecheckerboard="0"
     inkscape:deskcolor="#505050"
     showgrid="false"
     inkscape:zoom="0.82714845"
     inkscape:cx="7.8583234"
     inkscape:cy="259.92916"
     inkscape:window-width="1920"
     inkscape:window-height="1027"
     inkscape:window-x="-8"
     inkscape:window-y="-8"
     inkscape:window-maximized="1"
     inkscape:current-layer="svg4" />
  <!--! Font Awesome Pro 6.4.0 by @fontawesome - https://fontawesome.com License - https://fontawesome.com/license (Commercial License) Copyright 2023 Fonticons, Inc. -->
  <path
     d="m 12.5,36.5 c 0,-13.3 10.7,-24 24,-24 H 82 c 22,0 41.5,12.8 50.6,32 h 411 c 26.3,0 45.5,25 38.6,50.4 l -41,152.3 c -8.5,31.4 -37,53.3 -69.5,53.3 H 183.2 l 5.4,28.5 c 2.2,11.3 12.1,19.5 23.6,19.5 h 288.3 c 13.3,0 24,10.7 24,24 0,13.3 -10.7,24 -24,24 H 212.2 c -34.6,0 -64.3,-24.6 -70.7,-58.5 L 89.9,67 C 89.2,63.2 85.9,60.5 82,60.5 H 36.5 c -13.3,0 -24,-10.7 -24,-24 z m 128,440 a 48,48 0 1 1 96,0 48,48 0 1 1 -96,0 z m 336,-48 a 48,48 0 1 1 0,96 48,48 0 1 1 0,-96 z"
     id="path2"
     style="fill:#c4c4c4;fill-opacity:1;stroke:#757575;stroke-width:25;stroke-dasharray:none;stroke-opacity:1" />
</svg>
